<?xml version="1.0" encoding="utf-8"?>
<!-- Generator: Adobe Illustrator 25.2.0, SVG Export Plug-In . SVG Version: 6.00 Build 0)  -->
<svg version="1.1" id="Capa_1" xmlns="http://www.w3.org/2000/svg" xmlns:xlink="http://www.w3.org/1999/xlink" x="0px" y="0px"
	 viewBox="0 0 113.4 113.4" style="enable-background:new 0 0 113.4 113.4;" xml:space="preserve">
<style type="text/css">
	.st0{fill-rule:evenodd;clip-rule:evenodd;}
</style>
<path class="st0" d="M45.6,82.1v9.3h-6.2v-9.3h-6.7c-1.1,0-2,0.9-2,2l0,20.6c0,1.1,0.9,2,2,2h18.9c1.1,0,2-0.9,2-2V84.1
	c0-1.1-0.9-2-2-2L45.6,82.1z M32.8,75.9h18.9c1.1,0,2-0.9,2-2V53.3c0-1.1-0.9-2-2-2h-6.1v9.3h-6.2v-9.3h-6.7c-1.1,0-2,0.9-2,2
	l0,20.6C30.8,75,31.7,75.9,32.8,75.9L32.8,75.9z M59.8,73.9c0,1.1,0.9,2,2,2h18.9c1.1,0,2-0.9,2-2V53.3c0-1.1-0.9-2-2-2h-6v9.3h-6.2
	v-9.3h-6.7c-1.1,0-2,0.9-2,2L59.8,73.9z M89.9,106.7c-0.6,0-1-0.4-1-1l0-57.5c0-1.7-1.4-3.1-3.1-3.1H27.7c-1.7,0-3.1,1.4-3.1,3.1
	l0,57.5c0,0.6-0.5,1-1,1H8.1c-0.6,0-1-0.4-1-1V37.8c0-1.5,0.7-2.7,2-3.5L54.7,8c1.3-0.7,2.7-0.7,4,0l45.6,26.3c1.3,0.7,2,2,2,3.5
	v67.9c0,0.6-0.4,1-1,1H89.9z M74.4,82.1v9.3h-6.2v-9.3h-6.4c-1.1,0-2,0.9-2,2v20.6c0,1.1,0.9,2,2,2h18.9c1.1,0,2-0.9,2-2V84.1
	c0-1.1-0.9-2-2-2H74.4L74.4,82.1z"/>
</svg>
