<?xml version="1.0" encoding="utf-8"?>
<!-- Generator: Adobe Illustrator 25.2.0, SVG Export Plug-In . SVG Version: 6.00 Build 0)  -->
<svg version="1.1" id="Capa_1" xmlns="http://www.w3.org/2000/svg" xmlns:xlink="http://www.w3.org/1999/xlink" x="0px" y="0px"
	 viewBox="0 0 155.9 155.9" style="enable-background:new 0 0 155.9 155.9;" xml:space="preserve">
<style type="text/css">
	.st0{fill-rule:evenodd;clip-rule:evenodd;}
</style>
<path class="st0" d="M65.5,106.2v10.7h-7.1v-10.7h-7.6c-1.3,0-2.3,1-2.3,2.3l0,23.5c0,1.3,1,2.3,2.3,2.3h21.6c1.3,0,2.3-1,2.3-2.3
	v-23.5c0-1.3-1-2.3-2.3-2.3L65.5,106.2z M50.8,99.1h21.6c1.3,0,2.3-1,2.3-2.3V73.3c0-1.3-1-2.3-2.3-2.3h-6.9v10.7h-7.1V71h-7.6
	c-1.3,0-2.3,1-2.3,2.3l0,23.5C48.5,98.1,49.6,99.1,50.8,99.1L50.8,99.1z M81.8,96.8c0,1.3,1,2.3,2.3,2.3h21.6c1.3,0,2.3-1,2.3-2.3
	V73.3c0-1.3-1-2.3-2.3-2.3h-6.9v10.7h-7.1V71H84c-1.3,0-2.3,1-2.3,2.3L81.8,96.8z M116.1,134.3c-0.6,0-1.1-0.5-1.1-1.1l0-65.7
	c0-1.9-1.5-3.5-3.5-3.5H45c-1.9,0-3.5,1.6-3.5,3.5l0,65.7c0,0.6-0.5,1.1-1.1,1.1H22.7c-0.6,0-1.1-0.5-1.1-1.1V55.6
	c0-1.7,0.8-3.1,2.3-4l52.1-30.1c1.5-0.8,3.1-0.8,4.6,0l52.1,30.1c1.5,0.8,2.3,2.3,2.3,4v77.6c0,0.6-0.5,1.1-1.1,1.1H116.1z
	 M98.4,106.2v10.7h-7.1v-10.7H84c-1.3,0-2.3,1-2.3,2.3V132c0,1.3,1,2.3,2.3,2.3h21.6c1.3,0,2.3-1,2.3-2.3v-23.5c0-1.3-1-2.3-2.3-2.3
	H98.4L98.4,106.2z"/>
</svg>
