<?xml version="1.0" encoding="utf-8"?>
<!-- Generator: Adobe Illustrator 25.2.0, SVG Export Plug-In . SVG Version: 6.00 Build 0)  -->
<svg version="1.1" id="Capa_1" xmlns="http://www.w3.org/2000/svg" xmlns:xlink="http://www.w3.org/1999/xlink" x="0px" y="0px"
	 viewBox="0 0 155.9 155.9" style="enable-background:new 0 0 155.9 155.9;" xml:space="preserve">
<style type="text/css">
	.st0{fill-rule:evenodd;clip-rule:evenodd;}
</style>
<path class="st0" d="M74.2,86.7v3.4h-2.2v-3.4h-2.4c-0.4,0-0.7,0.3-0.7,0.7l0,7.5c0,0.4,0.3,0.7,0.7,0.7h6.9c0.4,0,0.7-0.3,0.7-0.7
	v-7.5c0-0.4-0.3-0.7-0.7-0.7L74.2,86.7z M69.5,84.4h6.9c0.4,0,0.7-0.3,0.7-0.7v-7.5c0-0.4-0.3-0.7-0.7-0.7h-2.2v3.4h-2.2v-3.4h-2.4
	c-0.4,0-0.7,0.3-0.7,0.7l0,7.5C68.8,84.1,69.1,84.4,69.5,84.4L69.5,84.4z M79.3,83.7c0,0.4,0.3,0.7,0.7,0.7h6.8
	c0.4,0,0.7-0.3,0.7-0.7v-7.5c0-0.4-0.3-0.7-0.7-0.7h-2.2v3.4h-2.2v-3.4h-2.4c-0.4,0-0.7,0.3-0.7,0.7L79.3,83.7z M90.2,95.6
	c-0.2,0-0.4-0.2-0.4-0.4l0-20.8c0-0.6-0.5-1.1-1.1-1.1H67.7c-0.6,0-1.1,0.5-1.1,1.1l0,20.8c0,0.2-0.2,0.4-0.4,0.4h-5.6
	c-0.2,0-0.4-0.2-0.4-0.4V70.6c0-0.5,0.3-1,0.7-1.3l16.5-9.6c0.5-0.3,1-0.3,1.5,0l16.5,9.6c0.5,0.3,0.7,0.7,0.7,1.3v24.6
	c0,0.2-0.2,0.4-0.4,0.4H90.2z M84.6,86.7v3.4h-2.2v-3.4h-2.3c-0.4,0-0.7,0.3-0.7,0.7v7.5c0,0.4,0.3,0.7,0.7,0.7h6.8
	c0.4,0,0.7-0.3,0.7-0.7v-7.5c0-0.4-0.3-0.7-0.7-0.7H84.6L84.6,86.7z"/>
</svg>
