<?xml version="1.0" encoding="utf-8"?>
<!-- Generator: Adobe Illustrator 25.2.0, SVG Export Plug-In . SVG Version: 6.00 Build 0)  -->
<svg version="1.1" id="Capa_1" xmlns="http://www.w3.org/2000/svg" xmlns:xlink="http://www.w3.org/1999/xlink" x="0px" y="0px"
	 viewBox="0 0 155.9 155.9" style="enable-background:new 0 0 155.9 155.9;" xml:space="preserve">
<style type="text/css">
	.st0{fill-rule:evenodd;clip-rule:evenodd;}
</style>
<path class="st0" d="M62.3,113.3v13.3h-8.8v-13.3H44c-1.6,0-2.9,1.3-2.9,2.9l0,29.4c0,1.6,1.3,2.9,2.9,2.9h27c1.6,0,2.9-1.3,2.9-2.9
	v-29.4c0-1.6-1.3-2.9-2.9-2.9L62.3,113.3z M44,104.5h27c1.6,0,2.9-1.3,2.9-2.9V72.2c0-1.6-1.3-2.9-2.9-2.9h-8.7v13.3h-8.8V69.4h-9.5
	c-1.6,0-2.9,1.3-2.9,2.9l0,29.4C41.1,103.2,42.4,104.5,44,104.5L44,104.5z M82.6,101.6c0,1.6,1.3,2.9,2.9,2.9h26.9
	c1.6,0,2.9-1.3,2.9-2.9V72.2c0-1.6-1.3-2.9-2.9-2.9h-8.6v13.3H95V69.4h-9.5c-1.6,0-2.9,1.3-2.9,2.9L82.6,101.6z M125.6,148.5
	c-0.8,0-1.4-0.6-1.4-1.4l0.1-82.1c0-2.4-1.9-4.4-4.4-4.4H36.7c-2.4,0-4.4,2-4.4,4.4l0,82.1c0,0.8-0.6,1.4-1.4,1.4H8.8
	c-0.8,0-1.4-0.6-1.4-1.4V50.1c0-2.1,1-3.9,2.9-5L75.3,7.5c1.8-1.1,3.9-1,5.7,0l65.2,37.6c1.8,1,2.9,2.9,2.9,5V147
	c0,0.8-0.6,1.4-1.4,1.4H125.6z M103.5,113.3v13.3h-8.8v-13.3h-9.2c-1.6,0-2.9,1.3-2.9,2.9v29.4c0,1.6,1.3,2.9,2.9,2.9h26.9
	c1.6,0,2.9-1.3,2.9-2.9v-29.4c0-1.6-1.3-2.9-2.9-2.9H103.5L103.5,113.3z"/>
</svg>
